<svg width="209" height="93" viewBox="0 0 209 93" fill="none" xmlns="http://www.w3.org/2000/svg">
<path d="M72.6165 55.0996L72.615 55.1023C68.3852 62.7158 63.2044 67.4553 57.1962 70.3086C51.167 73.1719 44.2291 74.1719 36.4331 74.1719H26.2971V60.3319H28.1771C38.7206 60.3319 49.383 58.1162 55.2386 48.525L55.2387 48.525L55.245 48.5145C59.0589 42.091 59.675 33.2521 55.4395 26.0895C49.0567 15.164 37.0961 15.2019 29.559 15.2258C29.2169 15.2269 28.884 15.2279 28.5611 15.2279H20.7851H19.7851V16.2279V74.1719H1.81714V1.00391H36.3371C49.6467 1.00391 63.4107 3.563 72.7371 18.3899C75.725 23.1704 77.1439 29.7801 77.0732 36.5334C77.0025 43.2815 75.4454 50.0446 72.6165 55.0996ZM93.5353 28.0475L93.533 28.0455C87.8015 23.1193 84.4109 18.5294 82.8454 14.0387C81.3619 9.78307 81.4855 5.52457 82.9439 1.00391H100.592C99.9376 3.17537 99.7429 5.50725 100.282 7.85946C100.939 10.7234 102.663 13.5236 105.784 16.042C105.786 16.0435 105.788 16.0449 105.789 16.0463L109.715 19.3017L109.722 19.3073C125.517 32.1702 128.305 46.8791 123.937 56.6172C120.199 64.8888 115.133 69.2257 109.05 71.5371C102.895 73.8758 95.6285 74.1719 87.4091 74.1719H78.6172V60.0439H81.8412C82.2931 60.0439 82.8159 60.0516 83.3963 60.0602C86.2378 60.1022 90.4605 60.1647 94.5208 59.4404C99.3847 58.5727 104.394 56.5126 106.472 51.5661C108.141 47.7531 107.762 44.2632 105.94 40.9032C104.154 37.6101 100.983 34.4383 97.0844 31.1171C97.0835 31.1163 97.0826 31.1155 97.0816 31.1147L93.5353 28.0475ZM203.661 19.3833L203.665 19.3914C206.442 24.5288 207.79 31.3768 207.589 38.303C207.389 45.2272 205.645 52.1212 202.355 57.3585C192 73.7772 176.377 74.8439 164.033 74.8439H156.969V60.3319H160.577C169.531 60.3319 179.731 59.4848 186.374 49.319L186.378 49.3127C188.248 46.4036 189.13 42.2038 189.081 37.9842C189.031 33.7542 188.045 29.3421 186.008 25.9816L186.004 25.9748C183.042 21.1743 178.292 18.5928 173.376 17.2093C168.464 15.8272 163.289 15.6119 159.329 15.6119H151.649H150.649V16.6119V91.1639H132.681V1.00391H167.009C174.223 1.00391 181.24 1.55721 187.523 4.12175C193.769 6.67104 199.352 11.234 203.661 19.3833Z" stroke="#FF69B4" stroke-width="2"/>
</svg>
