<svg width="63" height="82" viewBox="0 0 63 82" fill="none" xmlns="http://www.w3.org/2000/svg">
<g filter="url(#filter0_d_409_12)">
<path d="M26 75C26 77.2091 27.7909 79 30 79C32.2091 79 34 77.2091 34 75H26ZM32.8284 1.17157C31.2663 -0.390524 28.7337 -0.390524 27.1716 1.17157L1.71573 26.6274C0.153632 28.1895 0.153632 30.7222 1.71573 32.2843C3.27783 33.8464 5.81049 33.8464 7.37258 32.2843L30 9.65686L52.6274 32.2843C54.1895 33.8464 56.7222 33.8464 58.2843 32.2843C59.8464 30.7222 59.8464 28.1895 58.2843 26.6274L32.8284 1.17157ZM34 75L34 4H26L26 75H34Z" fill="white"/>
</g>
<defs>
<filter id="filter0_d_409_12" x="0.544189" y="0" width="61.9116" height="82" filterUnits="userSpaceOnUse" color-interpolation-filters="sRGB">
<feFlood flood-opacity="0" result="BackgroundImageFix"/>
<feColorMatrix in="SourceAlpha" type="matrix" values="0 0 0 0 0 0 0 0 0 0 0 0 0 0 0 0 0 0 127 0" result="hardAlpha"/>
<feOffset dx="3" dy="3"/>
<feComposite in2="hardAlpha" operator="out"/>
<feColorMatrix type="matrix" values="0 0 0 0 0 0 0 0 0 0 0 0 0 0 0 0 0 0 1 0"/>
<feBlend mode="normal" in2="BackgroundImageFix" result="effect1_dropShadow_409_12"/>
<feBlend mode="normal" in="SourceGraphic" in2="effect1_dropShadow_409_12" result="shape"/>
</filter>
</defs>
</svg>
