<svg width="63" height="83" viewBox="0 0 63 83" fill="none" xmlns="http://www.w3.org/2000/svg">
<g filter="url(#filter0_d_409_10)">
<path d="M27.1608 77.8339C28.7229 79.396 31.2556 79.396 32.8177 77.8339L58.2735 52.378C59.8356 50.8159 59.8356 48.2833 58.2735 46.7212C56.7114 45.1591 54.1788 45.1591 52.6167 46.7212L29.9893 69.3486L7.36184 46.7212C5.79974 45.1591 3.26708 45.1591 1.70499 46.7212C0.142889 48.2833 0.142889 50.8159 1.70499 52.378L27.1608 77.8339ZM33.9893 4.00543C33.9893 1.79629 32.1984 0.00543292 29.9893 0.00543292C27.7801 0.00543292 25.9893 1.79629 25.9893 4.00543H33.9893ZM33.9893 75.0054L33.9893 4.00543H25.9893L25.9893 75.0054H33.9893Z" fill="white"/>
</g>
<defs>
<filter id="filter0_d_409_10" x="0.533447" y="0.00543213" width="61.9116" height="82" filterUnits="userSpaceOnUse" color-interpolation-filters="sRGB">
<feFlood flood-opacity="0" result="BackgroundImageFix"/>
<feColorMatrix in="SourceAlpha" type="matrix" values="0 0 0 0 0 0 0 0 0 0 0 0 0 0 0 0 0 0 127 0" result="hardAlpha"/>
<feOffset dx="3" dy="3"/>
<feComposite in2="hardAlpha" operator="out"/>
<feColorMatrix type="matrix" values="0 0 0 0 0 0 0 0 0 0 0 0 0 0 0 0 0 0 1 0"/>
<feBlend mode="normal" in2="BackgroundImageFix" result="effect1_dropShadow_409_10"/>
<feBlend mode="normal" in="SourceGraphic" in2="effect1_dropShadow_409_10" result="shape"/>
</filter>
</defs>
</svg>
