<svg width="216" height="81" viewBox="0 0 216 81" fill="none" xmlns="http://www.w3.org/2000/svg">
<mask id="path-1-inside-1_423_11" fill="white">
<path d="M10.9219 6.79688V68.9062H32.2031V79.1719H0V6.79688H10.9219Z"/>
<path d="M67.9631 33.5156H78.5569V79.1719H67.9631V74.3906C63.6194 78.4531 58.9475 80.4844 53.9475 80.4844C47.635 80.4844 42.4163 78.2031 38.2913 73.6406C34.1975 68.9844 32.1506 63.1719 32.1506 56.2031C32.1506 49.3594 34.1975 43.6562 38.2913 39.0938C42.385 34.5312 47.51 32.25 53.6663 32.25C58.9788 32.25 63.7444 34.4375 67.9631 38.8125V33.5156ZM42.9319 56.2031C42.9319 60.5781 44.1038 64.1406 46.4475 66.8906C48.8538 69.6719 51.885 71.0625 55.5413 71.0625C59.4475 71.0625 62.6038 69.7188 65.01 67.0312C67.4163 64.25 68.6194 60.7188 68.6194 56.4375C68.6194 52.1562 67.4163 48.625 65.01 45.8438C62.6038 43.125 59.4788 41.7656 55.635 41.7656C52.01 41.7656 48.9788 43.1406 46.5413 45.8906C44.135 48.6719 42.9319 52.1094 42.9319 56.2031Z"/>
<path d="M96.1763 0V38.8125C100.395 34.4375 105.176 32.25 110.52 32.25C116.676 32.25 121.801 34.5469 125.895 39.1406C129.989 43.7031 132.036 49.3906 132.036 56.2031C132.036 63.2344 129.973 69.0469 125.848 73.6406C121.754 78.2031 116.583 80.4844 110.333 80.4844C105.051 80.4844 100.333 78.4531 96.1763 74.3906V79.1719H85.6294V0H96.1763ZM121.254 56.6719C121.254 52.2969 120.067 48.7344 117.692 45.9844C115.286 43.1719 112.27 41.7656 108.645 41.7656C104.77 41.7656 101.614 43.125 99.1763 45.8438C96.77 48.5312 95.5669 52.0312 95.5669 56.3438C95.5669 60.7812 96.7544 64.3281 99.1294 66.9844C101.504 69.7031 104.629 71.0625 108.504 71.0625C112.161 71.0625 115.192 69.7031 117.598 66.9844C120.036 64.2344 121.254 60.7969 121.254 56.6719Z"/>
<path d="M136.952 33.5156H147.499V37.5938C149.436 35.5625 151.155 34.1719 152.655 33.4219C154.186 32.6406 155.999 32.25 158.092 32.25C160.874 32.25 163.78 33.1562 166.811 34.9688L161.983 44.625C159.983 43.1875 158.03 42.4688 156.124 42.4688C150.374 42.4688 147.499 46.8125 147.499 55.5V79.1719H136.952V33.5156Z"/>
<path d="M178.665 33.5156V79.1719H168.118V33.5156H178.665ZM166.524 14.5312C166.524 12.6875 167.196 11.0938 168.54 9.75C169.884 8.40625 171.493 7.73438 173.368 7.73438C175.274 7.73438 176.899 8.40625 178.243 9.75C179.587 11.0625 180.259 12.6719 180.259 14.5781C180.259 16.4844 179.587 18.1094 178.243 19.4531C176.931 20.7969 175.321 21.4688 173.415 21.4688C171.509 21.4688 169.884 20.7969 168.54 19.4531C167.196 18.1094 166.524 16.4688 166.524 14.5312Z"/>
<path d="M212.316 41.2969L203.597 45.9375C202.222 43.125 200.519 41.7188 198.488 41.7188C197.519 41.7188 196.691 42.0469 196.003 42.7031C195.316 43.3281 194.972 44.1406 194.972 45.1406C194.972 46.8906 197.003 48.625 201.066 50.3438C206.659 52.75 210.425 54.9688 212.363 57C214.3 59.0312 215.269 61.7656 215.269 65.2031C215.269 69.6094 213.644 73.2969 210.394 76.2656C207.238 79.0781 203.425 80.4844 198.956 80.4844C191.3 80.4844 185.878 76.75 182.691 69.2812L191.691 65.1094C192.941 67.2969 193.894 68.6875 194.55 69.2812C195.831 70.4688 197.363 71.0625 199.144 71.0625C202.706 71.0625 204.488 69.4375 204.488 66.1875C204.488 64.3125 203.113 62.5625 200.363 60.9375C199.3 60.4062 198.238 59.8906 197.175 59.3906C196.113 58.8906 195.034 58.375 193.941 57.8438C190.878 56.3438 188.722 54.8438 187.472 53.3438C185.878 51.4375 185.081 48.9844 185.081 45.9844C185.081 42.0156 186.441 38.7344 189.159 36.1406C191.941 33.5469 195.316 32.25 199.284 32.25C205.128 32.25 209.472 35.2656 212.316 41.2969Z"/>
</mask>
<path d="M10.9219 6.79688V68.9062H32.2031V79.1719H0V6.79688H10.9219Z" stroke="#FF69B4" stroke-width="4" mask="url(#path-1-inside-1_423_11)"/>
<path d="M67.9631 33.5156H78.5569V79.1719H67.9631V74.3906C63.6194 78.4531 58.9475 80.4844 53.9475 80.4844C47.635 80.4844 42.4163 78.2031 38.2913 73.6406C34.1975 68.9844 32.1506 63.1719 32.1506 56.2031C32.1506 49.3594 34.1975 43.6562 38.2913 39.0938C42.385 34.5312 47.51 32.25 53.6663 32.25C58.9788 32.25 63.7444 34.4375 67.9631 38.8125V33.5156ZM42.9319 56.2031C42.9319 60.5781 44.1038 64.1406 46.4475 66.8906C48.8538 69.6719 51.885 71.0625 55.5413 71.0625C59.4475 71.0625 62.6038 69.7188 65.01 67.0312C67.4163 64.25 68.6194 60.7188 68.6194 56.4375C68.6194 52.1562 67.4163 48.625 65.01 45.8438C62.6038 43.125 59.4788 41.7656 55.635 41.7656C52.01 41.7656 48.9788 43.1406 46.5413 45.8906C44.135 48.6719 42.9319 52.1094 42.9319 56.2031Z" stroke="#FF69B4" stroke-width="4" mask="url(#path-1-inside-1_423_11)"/>
<path d="M96.1763 0V38.8125C100.395 34.4375 105.176 32.25 110.52 32.25C116.676 32.25 121.801 34.5469 125.895 39.1406C129.989 43.7031 132.036 49.3906 132.036 56.2031C132.036 63.2344 129.973 69.0469 125.848 73.6406C121.754 78.2031 116.583 80.4844 110.333 80.4844C105.051 80.4844 100.333 78.4531 96.1763 74.3906V79.1719H85.6294V0H96.1763ZM121.254 56.6719C121.254 52.2969 120.067 48.7344 117.692 45.9844C115.286 43.1719 112.27 41.7656 108.645 41.7656C104.77 41.7656 101.614 43.125 99.1763 45.8438C96.77 48.5312 95.5669 52.0312 95.5669 56.3438C95.5669 60.7812 96.7544 64.3281 99.1294 66.9844C101.504 69.7031 104.629 71.0625 108.504 71.0625C112.161 71.0625 115.192 69.7031 117.598 66.9844C120.036 64.2344 121.254 60.7969 121.254 56.6719Z" stroke="#FF69B4" stroke-width="4" mask="url(#path-1-inside-1_423_11)"/>
<path d="M136.952 33.5156H147.499V37.5938C149.436 35.5625 151.155 34.1719 152.655 33.4219C154.186 32.6406 155.999 32.25 158.092 32.25C160.874 32.25 163.78 33.1562 166.811 34.9688L161.983 44.625C159.983 43.1875 158.03 42.4688 156.124 42.4688C150.374 42.4688 147.499 46.8125 147.499 55.5V79.1719H136.952V33.5156Z" stroke="#FF69B4" stroke-width="4" mask="url(#path-1-inside-1_423_11)"/>
<path d="M178.665 33.5156V79.1719H168.118V33.5156H178.665ZM166.524 14.5312C166.524 12.6875 167.196 11.0938 168.54 9.75C169.884 8.40625 171.493 7.73438 173.368 7.73438C175.274 7.73438 176.899 8.40625 178.243 9.75C179.587 11.0625 180.259 12.6719 180.259 14.5781C180.259 16.4844 179.587 18.1094 178.243 19.4531C176.931 20.7969 175.321 21.4688 173.415 21.4688C171.509 21.4688 169.884 20.7969 168.54 19.4531C167.196 18.1094 166.524 16.4688 166.524 14.5312Z" stroke="#FF69B4" stroke-width="4" mask="url(#path-1-inside-1_423_11)"/>
<path d="M212.316 41.2969L203.597 45.9375C202.222 43.125 200.519 41.7188 198.488 41.7188C197.519 41.7188 196.691 42.0469 196.003 42.7031C195.316 43.3281 194.972 44.1406 194.972 45.1406C194.972 46.8906 197.003 48.625 201.066 50.3438C206.659 52.75 210.425 54.9688 212.363 57C214.3 59.0312 215.269 61.7656 215.269 65.2031C215.269 69.6094 213.644 73.2969 210.394 76.2656C207.238 79.0781 203.425 80.4844 198.956 80.4844C191.3 80.4844 185.878 76.75 182.691 69.2812L191.691 65.1094C192.941 67.2969 193.894 68.6875 194.55 69.2812C195.831 70.4688 197.363 71.0625 199.144 71.0625C202.706 71.0625 204.488 69.4375 204.488 66.1875C204.488 64.3125 203.113 62.5625 200.363 60.9375C199.3 60.4062 198.238 59.8906 197.175 59.3906C196.113 58.8906 195.034 58.375 193.941 57.8438C190.878 56.3438 188.722 54.8438 187.472 53.3438C185.878 51.4375 185.081 48.9844 185.081 45.9844C185.081 42.0156 186.441 38.7344 189.159 36.1406C191.941 33.5469 195.316 32.25 199.284 32.25C205.128 32.25 209.472 35.2656 212.316 41.2969Z" stroke="#FF69B4" stroke-width="4" mask="url(#path-1-inside-1_423_11)"/>
</svg>
