<svg width="493" height="131" viewBox="0 0 493 131" fill="none" xmlns="http://www.w3.org/2000/svg">
<g filter="url(#filter0_d_418_10)">
<path fill-rule="evenodd" clip-rule="evenodd" d="M8 8V120H482V8H8ZM7 0C3.13401 0 0 3.13401 0 7V121C0 124.866 3.13399 128 6.99998 128H483C486.866 128 490 124.866 490 121V7C490 3.13401 486.866 0 483 0H7Z" fill="#87CEEB"/>
<path d="M32.5938 29.625V91.7344H53.875V102H21.6719V29.625H32.5938Z" fill="white"/>
<path d="M89.635 56.3438H100.229V102H89.635V97.2188C85.2913 101.281 80.6194 103.312 75.6194 103.312C69.3069 103.312 64.0881 101.031 59.9631 96.4688C55.8694 91.8125 53.8225 86 53.8225 79.0312C53.8225 72.1875 55.8694 66.4844 59.9631 61.9219C64.0569 57.3594 69.1819 55.0781 75.3381 55.0781C80.6506 55.0781 85.4163 57.2656 89.635 61.6406V56.3438ZM64.6038 79.0312C64.6038 83.4062 65.7756 86.9688 68.1194 89.7188C70.5256 92.5 73.5569 93.8906 77.2131 93.8906C81.1194 93.8906 84.2756 92.5469 86.6819 89.8594C89.0881 87.0781 90.2913 83.5469 90.2913 79.2656C90.2913 74.9844 89.0881 71.4531 86.6819 68.6719C84.2756 65.9531 81.1506 64.5938 77.3069 64.5938C73.6819 64.5938 70.6506 65.9688 68.2131 68.7188C65.8069 71.5 64.6038 74.9375 64.6038 79.0312Z" fill="white"/>
<path d="M117.848 22.8281V61.6406C122.067 57.2656 126.848 55.0781 132.192 55.0781C138.348 55.0781 143.473 57.375 147.567 61.9688C151.661 66.5312 153.708 72.2188 153.708 79.0312C153.708 86.0625 151.645 91.875 147.52 96.4688C143.426 101.031 138.254 103.312 132.004 103.312C126.723 103.312 122.004 101.281 117.848 97.2188V102H107.301V22.8281H117.848ZM142.926 79.5C142.926 75.125 141.739 71.5625 139.364 68.8125C136.958 66 133.942 64.5938 130.317 64.5938C126.442 64.5938 123.286 65.9531 120.848 68.6719C118.442 71.3594 117.239 74.8594 117.239 79.1719C117.239 83.6094 118.426 87.1562 120.801 89.8125C123.176 92.5312 126.301 93.8906 130.176 93.8906C133.833 93.8906 136.864 92.5312 139.27 89.8125C141.708 87.0625 142.926 83.625 142.926 79.5Z" fill="white"/>
<path d="M158.624 56.3438H169.171V60.4219C171.108 58.3906 172.827 57 174.327 56.25C175.858 55.4688 177.671 55.0781 179.764 55.0781C182.546 55.0781 185.452 55.9844 188.483 57.7969L183.655 67.4531C181.655 66.0156 179.702 65.2969 177.796 65.2969C172.046 65.2969 169.171 69.6406 169.171 78.3281V102H158.624V56.3438Z" fill="white"/>
<path d="M200.337 56.3438V102H189.79V56.3438H200.337ZM188.196 37.3594C188.196 35.5156 188.868 33.9219 190.212 32.5781C191.556 31.2344 193.165 30.5625 195.04 30.5625C196.946 30.5625 198.571 31.2344 199.915 32.5781C201.259 33.8906 201.931 35.5 201.931 37.4062C201.931 39.3125 201.259 40.9375 199.915 42.2812C198.603 43.625 196.993 44.2969 195.087 44.2969C193.181 44.2969 191.556 43.625 190.212 42.2812C188.868 40.9375 188.196 39.2969 188.196 37.3594Z" fill="white"/>
<path d="M233.988 64.125L225.269 68.7656C223.894 65.9531 222.191 64.5469 220.159 64.5469C219.191 64.5469 218.363 64.875 217.675 65.5312C216.988 66.1562 216.644 66.9688 216.644 67.9688C216.644 69.7188 218.675 71.4531 222.738 73.1719C228.331 75.5781 232.097 77.7969 234.034 79.8281C235.972 81.8594 236.941 84.5938 236.941 88.0312C236.941 92.4375 235.316 96.125 232.066 99.0938C228.909 101.906 225.097 103.312 220.628 103.312C212.972 103.312 207.55 99.5781 204.363 92.1094L213.363 87.9375C214.613 90.125 215.566 91.5156 216.222 92.1094C217.503 93.2969 219.034 93.8906 220.816 93.8906C224.378 93.8906 226.159 92.2656 226.159 89.0156C226.159 87.1406 224.784 85.3906 222.034 83.7656C220.972 83.2344 219.909 82.7188 218.847 82.2188C217.784 81.7188 216.706 81.2031 215.613 80.6719C212.55 79.1719 210.394 77.6719 209.144 76.1719C207.55 74.2656 206.753 71.8125 206.753 68.8125C206.753 64.8438 208.113 61.5625 210.831 58.9688C213.613 56.375 216.988 55.0781 220.956 55.0781C226.8 55.0781 231.144 58.0938 233.988 64.125Z" fill="white"/>
<path d="M289.969 102H301.105C316.849 102 329.521 97.968 338.161 82.416C344.017 71.952 344.497 54.672 338.257 44.688C328.657 29.424 314.449 26.832 301.009 26.832H265.489V102H285.457V43.056H293.233C300.817 43.056 312.913 42.576 319.249 53.424C323.281 60.24 322.705 68.688 319.057 74.832C313.489 83.952 303.313 86.16 292.849 86.16H289.969V102Z" fill="white"/>
<path d="M346.897 26.832C343.441 36.72 345.937 45.648 357.553 55.632L361.105 58.704C368.881 65.328 373.297 70.992 370.225 78C366.481 86.928 351.985 85.872 346.513 85.872H342.289V102H352.081C368.497 102 381.841 100.848 389.521 83.856C394.129 73.584 391.057 58.416 375.025 45.36L371.089 42.096C365.137 37.296 364.753 31.632 366.673 26.832H346.897Z" fill="white"/>
<path d="M420.641 102.672H428.705C441.089 102.672 457.217 101.616 467.873 84.72C474.689 73.872 474.977 56.4 469.217 45.744C460.385 29.04 446.177 26.832 431.681 26.832H396.353V118.992H416.321V43.44H424.001C431.873 43.44 444.257 44.304 449.825 53.328C453.665 59.664 453.665 70.224 450.209 75.6C443.873 85.296 434.177 86.16 425.249 86.16H420.641V102.672Z" fill="white"/>
</g>
<defs>
<filter id="filter0_d_418_10" x="0" y="0" width="493" height="131" filterUnits="userSpaceOnUse" color-interpolation-filters="sRGB">
<feFlood flood-opacity="0" result="BackgroundImageFix"/>
<feColorMatrix in="SourceAlpha" type="matrix" values="0 0 0 0 0 0 0 0 0 0 0 0 0 0 0 0 0 0 127 0" result="hardAlpha"/>
<feOffset dx="3" dy="3"/>
<feComposite in2="hardAlpha" operator="out"/>
<feColorMatrix type="matrix" values="0 0 0 0 0 0 0 0 0 0 0 0 0 0 0 0 0 0 1 0"/>
<feBlend mode="normal" in2="BackgroundImageFix" result="effect1_dropShadow_418_10"/>
<feBlend mode="normal" in="SourceGraphic" in2="effect1_dropShadow_418_10" result="shape"/>
</filter>
</defs>
</svg>
