<svg width="490" height="128" viewBox="0 0 490 128" fill="none" xmlns="http://www.w3.org/2000/svg">
<mask id="path-1-inside-1_414_108" fill="white">
<path d="M0 7C0 3.13401 3.13401 0 7 0H483C486.866 0 490 3.13401 490 7V121C490 124.866 486.866 128 483 128H6.99998C3.13399 128 0 124.866 0 121V7Z"/>
<path fill-rule="evenodd" clip-rule="evenodd" d="M8 8V120H482V8H8ZM7 0C3.13401 0 0 3.13401 0 7V121C0 124.866 3.13399 128 6.99998 128H483C486.866 128 490 124.866 490 121V7C490 3.13401 486.866 0 483 0H7Z"/>
<path d="M32.5938 29.625V91.7344H53.875V102H21.6719V29.625H32.5938Z"/>
<path d="M89.635 56.3438H100.229V102H89.635V97.2188C85.2913 101.281 80.6194 103.312 75.6194 103.312C69.3069 103.312 64.0881 101.031 59.9631 96.4688C55.8694 91.8125 53.8225 86 53.8225 79.0312C53.8225 72.1875 55.8694 66.4844 59.9631 61.9219C64.0569 57.3594 69.1819 55.0781 75.3381 55.0781C80.6506 55.0781 85.4163 57.2656 89.635 61.6406V56.3438ZM64.6038 79.0312C64.6038 83.4062 65.7756 86.9688 68.1194 89.7188C70.5256 92.5 73.5569 93.8906 77.2131 93.8906C81.1194 93.8906 84.2756 92.5469 86.6819 89.8594C89.0881 87.0781 90.2913 83.5469 90.2913 79.2656C90.2913 74.9844 89.0881 71.4531 86.6819 68.6719C84.2756 65.9531 81.1506 64.5938 77.3069 64.5938C73.6819 64.5938 70.6506 65.9688 68.2131 68.7188C65.8069 71.5 64.6038 74.9375 64.6038 79.0312Z"/>
<path d="M117.848 22.8281V61.6406C122.067 57.2656 126.848 55.0781 132.192 55.0781C138.348 55.0781 143.473 57.375 147.567 61.9688C151.661 66.5312 153.708 72.2188 153.708 79.0312C153.708 86.0625 151.645 91.875 147.52 96.4688C143.426 101.031 138.254 103.312 132.004 103.312C126.723 103.312 122.004 101.281 117.848 97.2188V102H107.301V22.8281H117.848ZM142.926 79.5C142.926 75.125 141.739 71.5625 139.364 68.8125C136.958 66 133.942 64.5938 130.317 64.5938C126.442 64.5938 123.286 65.9531 120.848 68.6719C118.442 71.3594 117.239 74.8594 117.239 79.1719C117.239 83.6094 118.426 87.1562 120.801 89.8125C123.176 92.5312 126.301 93.8906 130.176 93.8906C133.833 93.8906 136.864 92.5312 139.27 89.8125C141.708 87.0625 142.926 83.625 142.926 79.5Z"/>
<path d="M158.624 56.3438H169.171V60.4219C171.108 58.3906 172.827 57 174.327 56.25C175.858 55.4688 177.671 55.0781 179.764 55.0781C182.546 55.0781 185.452 55.9844 188.483 57.7969L183.655 67.4531C181.655 66.0156 179.702 65.2969 177.796 65.2969C172.046 65.2969 169.171 69.6406 169.171 78.3281V102H158.624V56.3438Z"/>
<path d="M200.337 56.3438V102H189.79V56.3438H200.337ZM188.196 37.3594C188.196 35.5156 188.868 33.9219 190.212 32.5781C191.556 31.2344 193.165 30.5625 195.04 30.5625C196.946 30.5625 198.571 31.2344 199.915 32.5781C201.259 33.8906 201.931 35.5 201.931 37.4062C201.931 39.3125 201.259 40.9375 199.915 42.2812C198.603 43.625 196.993 44.2969 195.087 44.2969C193.181 44.2969 191.556 43.625 190.212 42.2812C188.868 40.9375 188.196 39.2969 188.196 37.3594Z"/>
<path d="M233.988 64.125L225.269 68.7656C223.894 65.9531 222.191 64.5469 220.159 64.5469C219.191 64.5469 218.363 64.875 217.675 65.5312C216.988 66.1562 216.644 66.9688 216.644 67.9688C216.644 69.7188 218.675 71.4531 222.738 73.1719C228.331 75.5781 232.097 77.7969 234.034 79.8281C235.972 81.8594 236.941 84.5938 236.941 88.0312C236.941 92.4375 235.316 96.125 232.066 99.0938C228.909 101.906 225.097 103.312 220.628 103.312C212.972 103.312 207.55 99.5781 204.363 92.1094L213.363 87.9375C214.613 90.125 215.566 91.5156 216.222 92.1094C217.503 93.2969 219.034 93.8906 220.816 93.8906C224.378 93.8906 226.159 92.2656 226.159 89.0156C226.159 87.1406 224.784 85.3906 222.034 83.7656C220.972 83.2344 219.909 82.7188 218.847 82.2188C217.784 81.7188 216.706 81.2031 215.613 80.6719C212.55 79.1719 210.394 77.6719 209.144 76.1719C207.55 74.2656 206.753 71.8125 206.753 68.8125C206.753 64.8438 208.113 61.5625 210.831 58.9688C213.613 56.375 216.988 55.0781 220.956 55.0781C226.8 55.0781 231.144 58.0938 233.988 64.125Z"/>
<path d="M289.969 102H301.105C316.849 102 329.521 97.968 338.161 82.416C344.017 71.952 344.497 54.672 338.257 44.688C328.657 29.424 314.449 26.832 301.009 26.832H265.489V102H285.457V43.056H293.233C300.817 43.056 312.913 42.576 319.249 53.424C323.281 60.24 322.705 68.688 319.057 74.832C313.489 83.952 303.313 86.16 292.849 86.16H289.969V102Z"/>
<path d="M346.897 26.832C343.441 36.72 345.937 45.648 357.553 55.632L361.105 58.704C368.881 65.328 373.297 70.992 370.225 78C366.481 86.928 351.985 85.872 346.513 85.872H342.289V102H352.081C368.497 102 381.841 100.848 389.521 83.856C394.129 73.584 391.057 58.416 375.025 45.36L371.089 42.096C365.137 37.296 364.753 31.632 366.673 26.832H346.897Z"/>
<path d="M420.641 102.672H428.705C441.089 102.672 457.217 101.616 467.873 84.72C474.689 73.872 474.977 56.4 469.217 45.744C460.385 29.04 446.177 26.832 431.681 26.832H396.353V118.992H416.321V43.44H424.001C431.873 43.44 444.257 44.304 449.825 53.328C453.665 59.664 453.665 70.224 450.209 75.6C443.873 85.296 434.177 86.16 425.249 86.16H420.641V102.672Z"/>
</mask>
<path d="M1 7C1 3.68629 3.68629 1 7 1V-1C2.58172 -1 -1 2.58172 -1 7H1ZM7 1H483V-1H7V1ZM483 1C486.314 1 489 3.68629 489 7H491C491 2.58172 487.418 -1 483 -1V1ZM489 7V121H491V7H489ZM489 121C489 124.314 486.314 127 483 127V129C487.418 129 491 125.418 491 121H489ZM483 127H6.99998V129H483V127ZM6.99998 127C3.68628 127 1 124.314 1 121H-1C-1 125.418 2.5817 129 6.99998 129V127ZM1 121V7H-1V121H1ZM8 120H6V122H8V120ZM8 8V6H6V8H8ZM482 120V122H484V120H482ZM482 8H484V6H482V8ZM32.5938 29.625H34.5938V27.625H32.5938V29.625ZM32.5938 91.7344H30.5938V93.7344H32.5938V91.7344ZM53.875 91.7344H55.875V89.7344H53.875V91.7344ZM53.875 102V104H55.875V102H53.875ZM21.6719 102H19.6719V104H21.6719V102ZM21.6719 29.625V27.625H19.6719V29.625H21.6719ZM89.635 56.3438V54.3438H87.635V56.3438H89.635ZM100.229 56.3438H102.229V54.3438H100.229V56.3438ZM100.229 102V104H102.229V102H100.229ZM89.635 102H87.635V104H89.635V102ZM89.635 97.2188H91.635V92.6099L88.2689 95.758L89.635 97.2188ZM59.9631 96.4688L58.4611 97.7893L58.4703 97.7997L58.4796 97.81L59.9631 96.4688ZM89.635 61.6406L88.1953 63.0289L91.635 66.596V61.6406H89.635ZM68.1194 89.7188L66.5972 91.0161L66.602 91.0217L66.6069 91.0273L68.1194 89.7188ZM86.6819 89.8594L88.1719 91.1935L88.1832 91.1808L88.1944 91.1679L86.6819 89.8594ZM86.6819 68.6719L88.1944 67.3633L88.187 67.3548L88.1795 67.3464L86.6819 68.6719ZM68.2131 68.7188L66.7164 67.3921L66.7085 67.4011L66.7006 67.4102L68.2131 68.7188ZM117.848 22.8281H119.848V20.8281H117.848V22.8281ZM117.848 61.6406H115.848V66.596L119.288 63.0289L117.848 61.6406ZM147.567 61.9688L146.074 63.2994L146.078 63.3044L147.567 61.9688ZM147.52 96.4688L146.032 95.1325L146.031 95.1331L147.52 96.4688ZM117.848 97.2188L119.246 95.7885L115.848 92.4672V97.2188H117.848ZM117.848 102V104H119.848V102H117.848ZM107.301 102H105.301V104H107.301V102ZM107.301 22.8281V20.8281H105.301V22.8281H107.301ZM139.364 68.8125L137.844 70.1127L137.85 70.1197L139.364 68.8125ZM120.848 68.6719L119.359 67.3368L119.358 67.3378L120.848 68.6719ZM120.801 89.8125L122.307 88.4967L122.3 88.488L122.292 88.4794L120.801 89.8125ZM139.27 89.8125L137.773 88.4859L137.772 88.487L139.27 89.8125ZM158.624 56.3438V54.3438H156.624V56.3438H158.624ZM169.171 56.3438H171.171V54.3438H169.171V56.3438ZM169.171 60.4219H167.171V65.4163L170.618 61.8023L169.171 60.4219ZM174.327 56.25L175.221 58.0389L175.229 58.0352L175.236 58.0315L174.327 56.25ZM188.483 57.7969L190.272 58.6913L191.102 57.0322L189.51 56.0803L188.483 57.7969ZM183.655 67.4531L182.488 69.0772L184.394 70.4473L185.444 68.3476L183.655 67.4531ZM169.171 102V104H171.171V102H169.171ZM158.624 102H156.624V104H158.624V102ZM200.337 56.3438H202.337V54.3438H200.337V56.3438ZM200.337 102V104H202.337V102H200.337ZM189.79 102H187.79V104H189.79V102ZM189.79 56.3438V54.3438H187.79V56.3438H189.79ZM199.915 32.5781L198.501 33.9923L198.509 34.0007L198.518 34.0089L199.915 32.5781ZM199.915 42.2812L198.501 40.867L198.492 40.8754L198.484 40.8838L199.915 42.2812ZM233.988 64.125L234.927 65.8905L236.609 64.9953L235.797 63.2721L233.988 64.125ZM225.269 68.7656L223.472 69.644L224.381 71.5037L226.208 70.5311L225.269 68.7656ZM217.675 65.5312L219.02 67.0111L219.038 66.9948L219.056 66.978L217.675 65.5312ZM222.738 73.1719L223.528 71.3346L223.517 71.3299L222.738 73.1719ZM232.066 99.0938L233.396 100.587L233.405 100.579L233.415 100.57L232.066 99.0938ZM204.363 92.1094L203.521 90.2948L201.762 91.1105L202.523 92.8944L204.363 92.1094ZM213.363 87.9375L215.099 86.9452L214.188 85.3505L212.521 86.123L213.363 87.9375ZM216.222 92.1094L217.581 90.6425L217.573 90.6344L217.564 90.6263L216.222 92.1094ZM222.034 83.7656L223.052 82.0438L222.991 82.0081L222.929 81.9768L222.034 83.7656ZM215.613 80.6719L214.733 82.468L214.739 82.4709L215.613 80.6719ZM209.144 76.1719L210.68 74.8915L210.678 74.889L209.144 76.1719ZM210.831 58.9688L209.467 57.5061L209.459 57.5138L209.451 57.5217L210.831 58.9688ZM289.969 102H287.969V104H289.969V102ZM338.161 82.416L336.416 81.4393L336.413 81.4447L338.161 82.416ZM338.257 44.688L339.953 43.628L339.95 43.6232L338.257 44.688ZM265.489 26.832V24.832H263.489V26.832H265.489ZM265.489 102H263.489V104H265.489V102ZM285.457 102V104H287.457V102H285.457ZM285.457 43.056V41.056H283.457V43.056H285.457ZM319.249 53.424L317.522 54.4327L317.528 54.4423L319.249 53.424ZM319.057 74.832L320.764 75.8742L320.77 75.8637L320.777 75.8531L319.057 74.832ZM289.969 86.16V84.16H287.969V86.16H289.969ZM346.897 26.832V24.832H345.477L345.009 26.1721L346.897 26.832ZM357.553 55.632L358.861 54.1193L358.857 54.1153L357.553 55.632ZM361.105 58.704L359.797 60.2167L359.802 60.2216L359.808 60.2265L361.105 58.704ZM370.225 78L368.393 77.197L368.387 77.2117L368.381 77.2265L370.225 78ZM342.289 85.872V83.872H340.289V85.872H342.289ZM342.289 102H340.289V104H342.289V102ZM389.521 83.856L391.344 84.6797L391.346 84.6746L389.521 83.856ZM375.025 45.36L373.748 46.8995L373.755 46.9052L373.762 46.9108L375.025 45.36ZM371.089 42.096L372.366 40.5565L372.355 40.5478L372.345 40.5392L371.089 42.096ZM366.673 26.832L368.53 27.5748L369.627 24.832H366.673V26.832ZM420.641 102.672H418.641V104.672H420.641V102.672ZM467.873 84.72L469.564 85.7869L469.566 85.784L467.873 84.72ZM469.217 45.744L467.449 46.6788L467.453 46.687L467.457 46.695L469.217 45.744ZM396.353 26.832V24.832H394.353V26.832H396.353ZM396.353 118.992H394.353V120.992H396.353V118.992ZM416.321 118.992V120.992H418.321V118.992H416.321ZM416.321 43.44V41.44H414.321V43.44H416.321ZM449.825 53.328L451.535 52.2914L451.531 52.2846L451.527 52.2778L449.825 53.328ZM450.209 75.6L451.883 76.6941L451.887 76.6878L451.891 76.6815L450.209 75.6ZM420.641 86.16V84.16H418.641V86.16H420.641ZM10 120V8H6V120H10ZM482 118H8V122H482V118ZM480 8V120H484V8H480ZM8 10H482V6H8V10ZM30.5938 29.625V91.7344H34.5938V29.625H30.5938ZM32.5938 93.7344H53.875V89.7344H32.5938V93.7344ZM51.875 91.7344V102H55.875V91.7344H51.875ZM53.875 100H21.6719V104H53.875V100ZM23.6719 102V29.625H19.6719V102H23.6719ZM21.6719 31.625H32.5938V27.625H21.6719V31.625ZM89.635 58.3438H100.229V54.3438H89.635V58.3438ZM98.2288 56.3438V102H102.229V56.3438H98.2288ZM100.229 100H89.635V104H100.229V100ZM91.635 102V97.2188H87.635V102H91.635ZM88.2689 95.758C84.221 99.5438 80.0184 101.312 75.6194 101.312V105.312C81.2203 105.312 86.3615 103.019 91.0011 98.6795L88.2689 95.758ZM75.6194 101.312C69.8554 101.312 65.1813 99.2582 61.4467 95.1275L58.4796 97.81C62.995 102.804 68.7584 105.312 75.6194 105.312V101.312ZM61.4652 95.1482C57.7326 90.9027 55.8225 85.5785 55.8225 79.0312H51.8225C51.8225 86.4215 54.0062 92.7223 58.4611 97.7893L61.4652 95.1482ZM55.8225 79.0312C55.8225 72.6187 57.7263 67.4095 61.4517 63.2575L58.4745 60.5862C54.0124 65.5592 51.8225 71.7563 51.8225 79.0312H55.8225ZM61.4517 63.2575C65.1643 59.1199 69.7471 57.0781 75.3381 57.0781V53.0781C68.6166 53.0781 62.9495 55.5988 58.4745 60.5862L61.4517 63.2575ZM75.3381 57.0781C80.0277 57.0781 84.2942 58.9833 88.1953 63.0289L91.0747 60.2524C86.5383 55.548 81.2736 53.0781 75.3381 53.0781V57.0781ZM91.635 61.6406V56.3438H87.635V61.6406H91.635ZM62.6038 79.0312C62.6038 83.7772 63.8834 87.8319 66.5972 91.0161L69.6415 88.4214C67.6678 86.1056 66.6038 83.0353 66.6038 79.0312H62.6038ZM66.6069 91.0273C69.3905 94.2447 72.9723 95.8906 77.2131 95.8906V91.8906C74.1414 91.8906 71.6608 90.7553 69.6319 88.4102L66.6069 91.0273ZM77.2131 95.8906C81.6352 95.8906 85.3523 94.3426 88.1719 91.1935L85.1918 88.5253C83.1989 90.7511 80.6036 91.8906 77.2131 91.8906V95.8906ZM88.1944 91.1679C90.9657 87.9648 92.2913 83.9441 92.2913 79.2656H88.2913C88.2913 83.1497 87.2106 86.1915 85.1694 88.5508L88.1944 91.1679ZM92.2913 79.2656C92.2913 74.5872 90.9657 70.5665 88.1944 67.3633L85.1694 69.9804C87.2106 72.3398 88.2913 75.3816 88.2913 79.2656H92.2913ZM88.1795 67.3464C85.3692 64.171 81.6853 62.5938 77.3069 62.5938V66.5938C80.6159 66.5938 83.1821 67.7353 85.1842 69.9974L88.1795 67.3464ZM77.3069 62.5938C73.1007 62.5938 69.5275 64.2206 66.7164 67.3921L69.7098 70.0454C71.7737 67.7169 74.2631 66.5938 77.3069 66.5938V62.5938ZM66.7006 67.4102C63.9438 70.5966 62.6038 74.5152 62.6038 79.0312H66.6038C66.6038 75.3598 67.67 72.4034 69.7256 70.0273L66.7006 67.4102ZM115.848 22.8281V61.6406H119.848V22.8281H115.848ZM119.288 63.0289C123.186 58.986 127.468 57.0781 132.192 57.0781V53.0781C126.229 53.0781 120.947 55.5452 116.408 60.2524L119.288 63.0289ZM132.192 57.0781C137.778 57.0781 142.36 59.1317 146.074 63.2994L149.06 60.6381C144.587 55.6183 138.918 53.0781 132.192 53.0781V57.0781ZM146.078 63.3044C149.805 67.4582 151.708 72.6526 151.708 79.0312H155.708C155.708 71.7849 153.516 65.6043 149.055 60.6331L146.078 63.3044ZM151.708 79.0312C151.708 85.6425 149.781 90.9569 146.032 95.1325L149.008 97.805C153.509 92.7931 155.708 86.4825 155.708 79.0312H151.708ZM146.031 95.1331C142.325 99.2634 137.699 101.312 132.004 101.312V105.312C138.81 105.312 144.527 102.799 149.009 97.8044L146.031 95.1331ZM132.004 101.312C127.3 101.312 123.07 99.5259 119.246 95.7885L116.45 98.649C120.939 103.037 126.146 105.312 132.004 105.312V101.312ZM115.848 97.2188V102H119.848V97.2188H115.848ZM117.848 100H107.301V104H117.848V100ZM109.301 102V22.8281H105.301V102H109.301ZM107.301 24.8281H117.848V20.8281H107.301V24.8281ZM144.926 79.5C144.926 74.7475 143.627 70.6892 140.877 67.5053L137.85 70.1197C139.85 72.4358 140.926 75.5025 140.926 79.5H144.926ZM140.883 67.5123C138.106 64.2664 134.54 62.5938 130.317 62.5938V66.5938C133.343 66.5938 135.809 67.7336 137.844 70.1127L140.883 67.5123ZM130.317 62.5938C125.913 62.5938 122.201 64.1665 119.359 67.3368L122.337 70.007C124.37 67.7398 126.971 66.5938 130.317 66.5938V62.5938ZM119.358 67.3378C116.562 70.4612 115.239 74.4685 115.239 79.1719H119.239C119.239 75.2502 120.322 72.2576 122.338 70.006L119.358 67.3378ZM115.239 79.1719C115.239 83.9757 116.532 88.0388 119.31 91.1456L122.292 88.4794C120.32 86.2737 119.239 83.2431 119.239 79.1719H115.239ZM119.295 91.1283C122.08 94.3166 125.772 95.8906 130.176 95.8906V91.8906C126.831 91.8906 124.272 90.7459 122.307 88.4967L119.295 91.1283ZM130.176 95.8906C134.401 95.8906 137.979 94.2891 140.768 91.138L137.772 88.487C135.749 90.7734 133.264 91.8906 130.176 91.8906V95.8906ZM140.767 91.1391C143.569 87.9779 144.926 84.0496 144.926 79.5H140.926C140.926 83.2004 139.846 86.1471 137.773 88.4859L140.767 91.1391ZM158.624 58.3438H169.171V54.3438H158.624V58.3438ZM167.171 56.3438V60.4219H171.171V56.3438H167.171ZM170.618 61.8023C172.488 59.8412 174.021 58.6392 175.221 58.0389L173.432 54.4611C171.633 55.3608 169.728 56.94 167.723 59.0415L170.618 61.8023ZM175.236 58.0315C176.431 57.4219 177.919 57.0781 179.764 57.0781V53.0781C177.423 53.0781 175.286 53.5156 173.418 54.4685L175.236 58.0315ZM179.764 57.0781C182.099 57.0781 184.653 57.8371 187.457 59.5134L189.51 56.0803C186.251 54.1317 182.992 53.0781 179.764 53.0781V57.0781ZM186.694 56.9024L181.866 66.5587L185.444 68.3476L190.272 58.6913L186.694 56.9024ZM184.822 65.8291C182.581 64.2185 180.228 63.2969 177.796 63.2969V67.2969C179.175 67.2969 180.729 67.8128 182.488 69.0772L184.822 65.8291ZM177.796 63.2969C174.332 63.2969 171.51 64.6541 169.659 67.4508C167.904 70.1027 167.171 73.8271 167.171 78.3281H171.171C171.171 74.1416 171.875 71.3504 172.995 69.6585C174.019 68.1115 175.509 67.2969 177.796 67.2969V63.2969ZM167.171 78.3281V102H171.171V78.3281H167.171ZM169.171 100H158.624V104H169.171V100ZM160.624 102V56.3438H156.624V102H160.624ZM198.337 56.3438V102H202.337V56.3438H198.337ZM200.337 100H189.79V104H200.337V100ZM191.79 102V56.3438H187.79V102H191.79ZM189.79 58.3438H200.337V54.3438H189.79V58.3438ZM190.196 37.3594C190.196 36.064 190.645 34.9739 191.626 33.9923L188.798 31.1639C187.092 32.8699 186.196 34.9673 186.196 37.3594H190.196ZM191.626 33.9923C192.6 33.018 193.703 32.5625 195.04 32.5625V28.5625C192.627 28.5625 190.511 29.4508 188.798 31.1639L191.626 33.9923ZM195.04 32.5625C196.418 32.5625 197.533 33.025 198.501 33.9923L201.329 31.1639C199.609 29.4438 197.475 28.5625 195.04 28.5625V32.5625ZM198.518 34.0089C199.47 34.9388 199.931 36.0296 199.931 37.4062H203.931C203.931 34.9704 203.048 32.8425 201.312 31.1474L198.518 34.0089ZM199.931 37.4062C199.931 38.7839 199.468 39.8997 198.501 40.867L201.329 43.6955C203.049 41.9753 203.931 39.8411 203.931 37.4062H199.931ZM198.484 40.8838C197.554 41.8358 196.464 42.2969 195.087 42.2969V46.2969C197.523 46.2969 199.651 45.4142 201.346 43.6787L198.484 40.8838ZM195.087 42.2969C193.709 42.2969 192.593 41.8344 191.626 40.867L188.798 43.6955C190.518 45.4156 192.652 46.2969 195.087 46.2969V42.2969ZM191.626 40.867C190.666 39.9065 190.196 38.7781 190.196 37.3594H186.196C186.196 39.8157 187.071 41.9685 188.798 43.6955L191.626 40.867ZM233.048 62.3595L224.329 67.0001L226.208 70.5311L234.927 65.8905L233.048 62.3595ZM227.066 67.8872C225.556 64.8 223.325 62.5469 220.159 62.5469V66.5469C221.056 66.5469 222.231 67.1063 223.472 69.644L227.066 67.8872ZM220.159 62.5469C218.687 62.5469 217.362 63.0656 216.294 64.0845L219.056 66.978C219.363 66.6844 219.694 66.5469 220.159 66.5469V62.5469ZM216.33 64.0514C215.191 65.0867 214.644 66.4535 214.644 67.9688H218.644C218.644 67.484 218.784 67.2258 219.02 67.0111L216.33 64.0514ZM214.644 67.9688C214.644 69.6805 215.644 71.0571 216.869 72.103C218.108 73.1614 219.844 74.1194 221.958 75.0138L223.517 71.3299C221.568 70.5056 220.258 69.737 219.466 69.061C218.66 68.3726 218.644 68.007 218.644 67.9688H214.644ZM221.947 75.0091C227.516 77.4045 230.951 79.4929 232.587 81.2085L235.482 78.4477C233.243 76.1008 229.147 73.7517 223.528 71.3346L221.947 75.0091ZM232.587 81.2085C234.094 82.7881 234.941 84.986 234.941 88.0312H238.941C238.941 84.2015 237.85 80.9307 235.482 78.4477L232.587 81.2085ZM234.941 88.0312C234.941 91.8763 233.551 95.0277 230.717 97.6171L233.415 100.57C237.08 97.2223 238.941 92.9987 238.941 88.0312H234.941ZM230.735 97.6006C227.967 100.067 224.637 101.312 220.628 101.312V105.312C225.557 105.312 229.851 103.746 233.396 100.587L230.735 97.6006ZM220.628 101.312C217.137 101.312 214.279 100.466 211.954 98.8646C209.621 97.2574 207.682 94.7918 206.202 91.3243L202.523 92.8944C204.231 96.8957 206.597 100.032 209.685 102.159C212.782 104.292 216.463 105.312 220.628 105.312V101.312ZM205.204 93.9239L214.204 89.752L212.521 86.123L203.521 90.2948L205.204 93.9239ZM211.626 88.9298C212.854 91.0789 213.951 92.7518 214.88 93.5924L217.564 90.6263C217.18 90.2794 216.371 89.1711 215.099 86.9452L211.626 88.9298ZM214.862 93.5762C216.521 95.1138 218.541 95.8906 220.816 95.8906V91.8906C219.528 91.8906 218.485 91.4799 217.581 90.6425L214.862 93.5762ZM220.816 95.8906C222.862 95.8906 224.77 95.4278 226.171 94.1494C227.608 92.8392 228.159 90.9986 228.159 89.0156H224.159C224.159 90.2826 223.821 90.8795 223.476 91.1943C223.096 91.5409 222.332 91.8906 220.816 91.8906V95.8906ZM228.159 89.0156C228.159 86.0407 225.972 83.7695 223.052 82.0438L221.017 85.4875C223.596 87.0118 224.159 88.2406 224.159 89.0156H228.159ZM222.929 81.9768C221.852 81.4385 220.775 80.9159 219.698 80.4091L217.995 84.0284C219.043 84.5216 220.091 85.0302 221.14 85.5545L222.929 81.9768ZM219.698 80.4091C218.644 79.9127 217.573 79.4006 216.486 78.8729L214.739 82.4709C215.84 83.0056 216.925 83.5248 217.995 84.0284L219.698 80.4091ZM216.492 78.8757C213.521 77.4206 211.663 76.0704 210.68 74.8915L207.607 77.4522C209.125 79.2733 211.579 80.9231 214.733 82.468L216.492 78.8757ZM210.678 74.889C209.444 73.4133 208.753 71.4447 208.753 68.8125H204.753C204.753 72.1803 205.656 75.118 207.609 77.4547L210.678 74.889ZM208.753 68.8125C208.753 65.3561 209.913 62.6091 212.212 60.4158L209.451 57.5217C206.312 60.5159 204.753 64.3314 204.753 68.8125H208.753ZM212.195 60.4314C214.589 58.1992 217.469 57.0781 220.956 57.0781V53.0781C216.506 53.0781 212.636 54.5508 209.467 57.5061L212.195 60.4314ZM220.956 57.0781C223.515 57.0781 225.654 57.7317 227.456 58.9827C229.274 60.2446 230.868 62.1981 232.179 64.9779L235.797 63.2721C234.263 60.0206 232.264 57.4507 229.737 55.697C227.196 53.9323 224.241 53.0781 220.956 53.0781V57.0781ZM289.969 104H301.105V100H289.969V104ZM301.105 104C309.129 104 316.565 102.976 323.155 99.8466C329.786 96.6973 335.409 91.4882 339.909 83.3873L336.413 81.4447C332.273 88.8958 327.24 93.4787 321.439 96.2334C315.597 99.0079 308.825 100 301.105 100V104ZM339.906 83.3927C343.033 77.8065 344.67 70.5249 344.745 63.3929C344.819 56.2717 343.337 49.043 339.953 43.628L336.561 45.748C339.417 50.317 340.815 56.7203 340.745 63.3511C340.676 69.9711 339.146 76.5615 336.416 81.4393L339.906 83.3927ZM339.95 43.6232C329.803 27.4893 314.708 24.832 301.009 24.832V28.832C314.19 28.832 327.511 31.3587 336.564 45.7528L339.95 43.6232ZM301.009 24.832H265.489V28.832H301.009V24.832ZM263.489 26.832V102H267.489V26.832H263.489ZM265.489 104H285.457V100H265.489V104ZM287.457 102V43.056H283.457V102H287.457ZM285.457 45.056H293.233V41.056H285.457V45.056ZM293.233 45.056C301.108 45.056 311.858 44.7355 317.522 54.4327L320.976 52.4153C313.968 40.4165 300.526 41.056 293.233 41.056V45.056ZM317.528 54.4423C321.149 60.5642 320.652 68.2276 317.337 73.8109L320.777 75.8531C324.758 69.1484 325.413 59.9158 320.97 52.4057L317.528 54.4423ZM317.35 73.7898C312.357 81.9674 303.154 84.16 292.849 84.16V88.16C303.472 88.16 314.621 85.9366 320.764 75.8742L317.35 73.7898ZM292.849 84.16H289.969V88.16H292.849V84.16ZM287.969 86.16V102H291.969V86.16H287.969ZM345.009 26.1721C343.16 31.4618 342.866 36.637 344.684 41.8543C346.486 47.0209 350.288 52.0252 356.249 57.1487L358.857 54.1153C353.202 49.2548 349.948 44.8031 348.462 40.5377C346.992 36.323 347.178 32.0902 348.785 27.4919L345.009 26.1721ZM356.245 57.1447L359.797 60.2167L362.413 57.1913L358.861 54.1193L356.245 57.1447ZM359.808 60.2265C363.672 63.5183 366.471 66.3892 367.975 69.1614C369.404 71.7972 369.656 74.3167 368.393 77.197L372.057 78.803C373.866 74.6753 373.446 70.8588 371.491 67.2546C369.611 63.7868 366.314 60.5137 362.402 57.1815L359.808 60.2265ZM368.381 77.2265C366.918 80.7149 363.261 82.4953 358.666 83.3151C354.117 84.1266 349.391 83.872 346.513 83.872V87.872C349.107 87.872 354.365 88.1454 359.368 87.2529C364.325 86.3687 369.788 84.2131 372.069 78.7735L368.381 77.2265ZM346.513 83.872H342.289V87.872H346.513V83.872ZM340.289 85.872V102H344.289V85.872H340.289ZM342.289 104H352.081V100H342.289V104ZM352.081 104C360.266 104 368.054 103.728 374.787 101.17C381.664 98.5566 387.301 93.623 391.344 84.6797L387.699 83.0323C384.061 91.081 379.186 95.2194 373.367 97.4304C367.405 99.6958 360.312 100 352.081 100V104ZM391.346 84.6746C396.433 73.3347 392.793 57.2501 376.288 43.8092L373.762 46.9108C389.321 59.5819 391.825 73.8333 387.696 83.0374L391.346 84.6746ZM376.302 43.8205L372.366 40.5565L369.812 43.6355L373.748 46.8995L376.302 43.8205ZM372.345 40.5392C369.665 38.3782 368.364 36.1339 367.878 34.0169C367.388 31.8806 367.686 29.6843 368.53 27.5748L364.816 26.0892C363.74 28.7797 363.27 31.8154 363.98 34.9111C364.694 38.0261 366.561 41.0138 369.834 43.6528L372.345 40.5392ZM366.673 24.832H346.897V28.832H366.673V24.832ZM420.641 104.672H428.705V100.672H420.641V104.672ZM428.705 104.672C441.169 104.672 458.306 103.637 469.564 85.7869L466.181 83.6531C456.127 99.5946 441.009 100.672 428.705 100.672V104.672ZM469.566 85.784C473.209 79.9869 475.048 72.5362 475.26 65.2178C475.471 57.9023 474.062 50.5023 470.976 44.793L467.457 46.695C470.131 51.6417 471.458 58.3057 471.262 65.1022C471.065 71.8958 469.353 78.6051 466.179 83.656L469.566 85.784ZM470.985 44.8092C466.354 36.0518 460.241 30.9937 453.329 28.1723C446.491 25.3814 438.996 24.832 431.681 24.832V28.832C438.862 28.832 445.719 29.3866 451.817 31.8757C457.84 34.3343 463.247 38.7322 467.449 46.6788L470.985 44.8092ZM431.681 24.832H396.353V28.832H431.681V24.832ZM394.353 26.832V118.992H398.353V26.832H394.353ZM396.353 120.992H416.321V116.992H396.353V120.992ZM418.321 118.992V43.44H414.321V118.992H418.321ZM416.321 45.44H424.001V41.44H416.321V45.44ZM424.001 45.44C427.888 45.44 432.73 45.6574 437.235 46.9252C441.73 48.1902 445.695 50.4433 448.123 54.3782L451.527 52.2778C448.387 47.1887 443.375 44.4978 438.319 43.0748C433.272 41.6546 427.986 41.44 424.001 41.44V45.44ZM448.114 54.3646C449.801 57.1477 450.708 60.9955 450.753 64.8474C450.798 68.7201 449.97 72.2727 448.526 74.5185L451.891 76.6815C453.903 73.5513 454.803 69.1359 454.753 64.8006C454.702 60.4445 453.688 55.8443 451.535 52.2914L448.114 54.3646ZM448.535 74.5059C442.813 83.2621 434.125 84.16 425.249 84.16V88.16C434.228 88.16 444.933 87.3299 451.883 76.6941L448.535 74.5059ZM425.249 84.16H420.641V88.16H425.249V84.16ZM418.641 86.16V102.672H422.641V86.16H418.641Z" fill="#FF69B4" mask="url(#path-1-inside-1_414_108)"/>
</svg>
